<svg xmlns="http://www.w3.org/2000/svg" viewBox="0 0 512 512">
  <defs>
    <linearGradient id="bg" x1="0" x2="0" y1="0" y2="1">
      <stop offset="0%" stop-color="#14532d" />
      <stop offset="100%" stop-color="#1e8449" />
    </linearGradient>
  </defs>
  <rect width="512" height="512" rx="96" fill="url(#bg)" />
  <g fill="#f7f4ef" transform="translate(128 128)">
    <path d="M128 0c-53.02 0-96 42.98-96 96s42.98 96 96 96 96-42.98 96-96S181.02 0 128 0zm0 160a64 64 0 1 1 0-128 64 64 0 0 1 0 128z" />
    <path d="M32 224c0-35.35 28.65-64 64-64h64c35.35 0 64 28.65 64 64v32H32z" opacity="0.85" />
  </g>
</svg>
